<svg width="520" height="80" viewBox="0 0 520 80" fill="none" xmlns="http://www.w3.org/2000/svg">
  <g transform="translate(0, 0)">
    <path fill-rule="evenodd" clip-rule="evenodd" d="M76.2315 34.67C75.8559 37.1343 73.9727 37.1343 72.1505 37.1343H71.1141L71.8414 32.5332C71.8848 32.2553 72.1248 32.0508 72.4065 32.0508H72.8822C74.1224 32.0508 75.2934 32.0508 75.8975 32.7563C76.2589 33.1785 76.3679 33.8052 76.2315 34.67ZM75.4387 28.2401H68.5683C68.0979 28.2401 67.6984 28.5818 67.6249 29.0456L64.847 46.6499C64.7921 46.9969 65.0613 47.3112 65.4121 47.3112H68.9377C69.2663 47.3112 69.5462 47.0722 69.5976 46.7482L70.386 41.7567C70.4586 41.2929 70.859 40.9512 71.3285 40.9512H73.5023C78.0279 40.9512 80.6402 38.7631 81.3223 34.4248C81.6297 32.5288 81.3347 31.0382 80.4462 29.9945C79.4692 28.8474 77.7374 28.2401 75.4387 28.2401Z" fill="#009CDE"/>
    <path fill-rule="evenodd" clip-rule="evenodd" d="M27.2281 34.67C26.8525 37.1343 24.9693 37.1343 23.1471 37.1343H22.1107L22.838 32.5332C22.8814 32.2553 23.1214 32.0508 23.4031 32.0508H23.8788C25.119 32.0508 26.29 32.0508 26.8941 32.7563C27.2556 33.1785 27.3645 33.8052 27.2281 34.67ZM26.4353 28.2401H19.5649C19.0945 28.2401 18.695 28.5818 18.6215 29.0456L15.8436 46.6499C15.7887 46.9969 16.0571 47.3112 16.4087 47.3112H19.6898C20.1593 47.3112 20.5588 46.9695 20.6323 46.5065L21.3826 41.7567C21.4552 41.2929 21.8556 40.9512 22.3251 40.9512H24.4989C29.0245 40.9512 31.6368 38.7631 32.3189 34.4248C32.6263 32.5288 32.3313 31.0382 31.4428 29.9945C30.4658 28.8474 28.734 28.2401 26.4353 28.2401Z" fill="#003087"/>
    <path fill-rule="evenodd" clip-rule="evenodd" d="M42.3858 40.9899C42.0678 42.8683 40.5761 44.1296 38.6724 44.1296C37.7184 44.1296 36.954 43.8225 36.4632 43.2418C35.9769 42.6665 35.7935 41.8459 35.9477 40.9333C36.2435 39.0709 37.7601 37.7697 39.6344 37.7697C40.569 37.7697 41.3272 38.0795 41.8277 38.6655C42.3317 39.2559 42.5302 40.0809 42.3858 40.9899ZM46.9708 34.591H43.6808C43.3992 34.591 43.1591 34.7955 43.1148 35.0743L42.9704 35.9931L42.741 35.6603C42.0279 34.6273 40.4396 34.2812 38.854 34.2812C35.2195 34.2812 32.1147 37.0341 31.5106 40.8943C31.1961 42.8205 31.6426 44.6607 32.7357 45.9451C33.7393 47.1251 35.1717 47.6163 36.8787 47.6163C39.8089 47.6163 41.4335 45.7362 41.4335 45.7362L41.2865 46.6497C41.2316 46.9967 41.5 47.311 41.8525 47.311H44.8147C45.2851 47.311 45.6846 46.9702 45.7581 46.5063L47.5368 35.2523C47.5917 34.9053 47.3224 34.591 46.9708 34.591Z" fill="#003087"/>
    <path fill-rule="evenodd" clip-rule="evenodd" d="M91.3887 40.9899C91.0707 42.8683 89.579 44.1296 87.6754 44.1296C86.7213 44.1296 85.9569 43.8225 85.4661 43.2418C84.9789 42.6665 84.7965 41.8459 84.9506 40.9333C85.2465 39.0709 86.763 37.7697 88.6374 37.7697C89.5719 37.7697 90.3302 38.0795 90.8306 38.6655C91.3347 39.2559 91.5331 40.0809 91.3887 40.9899ZM95.9737 34.591H92.6838C92.4021 34.591 92.162 34.7955 92.1177 35.0743L91.9734 35.9931L91.743 35.6603C91.0308 34.6273 89.4426 34.2812 87.857 34.2812C84.2225 34.2812 81.1177 37.0341 80.5135 40.8943C80.1991 42.8205 80.6455 44.6607 81.7386 45.9451C82.7423 47.1251 84.1746 47.6163 85.8816 47.6163C88.8119 47.6163 90.4365 45.7362 90.4365 45.7362L90.2894 46.6497C90.2345 46.9967 90.5029 47.311 90.8555 47.311H93.8176C94.288 47.311 94.6875 46.9702 94.761 46.5063L96.5397 35.2523C96.5947 34.9053 96.3254 34.591 95.9737 34.591Z" fill="#009CDE"/>
    <path fill-rule="evenodd" clip-rule="evenodd" d="M64.4927 34.5911H61.186C60.8697 34.5911 60.5739 34.7478 60.3967 35.0098L55.8347 41.7229L53.9019 35.2718C53.7805 34.8682 53.4085 34.5911 52.9868 34.5911H49.7368C49.3444 34.5911 49.068 34.977 49.1947 35.3479L52.8354 46.0284L49.4108 50.857C49.1424 51.2359 49.4135 51.7599 49.8785 51.7599H53.1817C53.4944 51.7599 53.7876 51.6068 53.9665 51.3501L64.9631 35.4896C65.2262 35.1098 64.9551 34.5911 64.4927 34.5911Z" fill="#003087"/>
    <path fill-rule="evenodd" clip-rule="evenodd" d="M99.8516 28.7239L97.0321 46.6504C96.9771 46.9973 97.2455 47.3116 97.5972 47.3116H100.434C100.903 47.3116 101.303 46.9699 101.376 46.5061L104.157 28.9018C104.212 28.5548 103.943 28.2406 103.591 28.2406H100.418C100.135 28.2406 99.895 28.445 99.8516 28.7239Z" fill="#009CDE"/>
  </g>
  <g transform="translate(130, 0)">
    <path fill-rule="evenodd" clip-rule="evenodd" d="M86.6666 44.9375L90.3239 35.0625L92.3809 44.9375H86.6666ZM100.952 52.8375L95.8086 27.1625H88.7383C86.3525 27.1625 85.7723 29.0759 85.7723 29.0759L76.1904 52.8375H82.8868L84.2269 49.0244H92.3947L93.1479 52.8375H100.952Z" fill="#1434CB"/>
    <path fill-rule="evenodd" clip-rule="evenodd" d="M77.1866 33.5711L78.0952 28.244C78.0952 28.244 75.2896 27.1625 72.3648 27.1625C69.2031 27.1625 61.6955 28.5638 61.6955 35.3738C61.6955 41.7825 70.5071 41.8621 70.5071 45.2266C70.5071 48.5912 62.6034 47.9901 59.9955 45.8676L59.0476 51.4362C59.0476 51.4362 61.8919 52.8375 66.2397 52.8375C70.5869 52.8375 77.1467 50.5544 77.1467 44.3455C77.1467 37.8964 68.2552 37.296 68.2552 34.4921C68.2552 31.6882 74.4602 32.0484 77.1866 33.5711Z" fill="#1434CB"/>
    <path fill-rule="evenodd" clip-rule="evenodd" d="M54.6517 52.8375H47.6191L52.0144 27.1625H59.0477L54.6517 52.8375Z" fill="#1434CB"/>
    <path fill-rule="evenodd" clip-rule="evenodd" d="M42.3113 27.1625L35.9217 44.8213L35.1663 41.0185L35.167 41.0199L32.9114 29.4749C32.9114 29.4749 32.6394 27.1625 29.7324 27.1625H19.1709L19.0476 27.5966C19.0476 27.5966 22.2782 28.2669 26.057 30.5326L31.8793 52.8375H38.8617L49.5238 27.1625H42.3113Z" fill="#1434CB"/>
  </g>
  <g transform="translate(260, 0)">
    <path fill-rule="evenodd" clip-rule="evenodd" d="M49.6521 58.595H70.3479V21.4044H49.6521V58.595Z" fill="#FF5F00"/>
    <path fill-rule="evenodd" clip-rule="evenodd" d="M98.2675 40.0003C98.2675 53.063 87.6791 63.652 74.6171 63.652C69.0996 63.652 64.0229 61.7624 60 58.5956C65.5011 54.2646 69.0339 47.5448 69.0339 40.0003C69.0339 32.4552 65.5011 25.7354 60 21.4044C64.0229 18.2376 69.0996 16.348 74.6171 16.348C87.6791 16.348 98.2675 26.937 98.2675 40.0003Z" fill="#F79E1B"/>
    <path fill-rule="evenodd" clip-rule="evenodd" d="M50.966 40.0003C50.966 32.4552 54.4988 25.7354 59.9999 21.4044C55.977 18.2376 50.9003 16.348 45.3828 16.348C32.3208 16.348 21.7324 26.937 21.7324 40.0003C21.7324 53.063 32.3208 63.652 45.3828 63.652C50.9003 63.652 55.977 61.7624 59.9999 58.5956C54.4988 54.2646 50.966 47.5448 50.966 40.0003Z" fill="#EB001B"/>
  </g>
  <g transform="translate(390, 0)">
    <path d="M92.5714 46.1922C90.7118 46.1922 89.2625 44.6544 89.2625 42.7872C89.2625 40.9199 90.7118 39.3822 92.5714 39.3822C94.4309 39.3822 95.8803 40.9199 95.8803 42.7872C95.8803 44.6544 94.4309 46.1922 92.5714 46.1922ZM91.6412 49.7894C93.2276 49.7894 95.2514 49.1853 96.373 46.8237L96.482 46.8787C95.99 48.1692 95.99 48.9382 95.99 49.1304V49.4324H99.9824V36.1419H95.99V36.444C95.99 36.6362 95.99 37.4051 96.482 38.6957L96.373 38.7506C95.2514 36.3891 93.2276 35.7849 91.6412 35.7849C87.8404 35.7849 85.1604 38.8055 85.1604 42.7872C85.1604 46.7688 87.8404 49.7894 91.6412 49.7894ZM78.2138 35.7849C76.4088 35.7849 74.9867 36.4165 73.8381 38.7506L73.7288 38.6957C74.221 37.4051 74.221 36.6362 74.221 36.444V36.1419H70.2282V49.4324H74.3304V42.4302C74.3304 40.5904 75.397 39.4371 77.1199 39.4371C78.8428 39.4371 79.6906 40.4256 79.6906 42.4027V49.4324H83.7928V40.9748C83.7928 37.9543 81.4405 35.7849 78.2138 35.7849ZM64.2938 38.7506L64.1843 38.6957C64.6766 37.4051 64.6766 36.6362 64.6766 36.444V36.1419H60.6839V49.4324H64.786L64.8133 43.0343C64.8133 41.1671 65.7979 40.0412 67.4114 40.0412C67.849 40.0412 68.2045 40.0961 68.6147 40.206V36.1419C66.8097 35.7575 65.1962 36.444 64.2938 38.7506ZM51.2489 46.1922C49.3892 46.1922 47.9397 44.6544 47.9397 42.7872C47.9397 40.9199 49.3892 39.3822 51.2489 39.3822C53.1085 39.3822 54.5579 40.9199 54.5579 42.7872C54.5579 44.6544 53.1085 46.1922 51.2489 46.1922ZM50.319 49.7894C51.9052 49.7894 53.9289 49.1853 55.0502 46.8237L55.1595 46.8787C54.6673 48.1692 54.6673 48.9382 54.6673 49.1304V49.4324H58.6601V36.1419H54.6673V36.444C54.6673 36.6362 54.6673 37.4051 55.1595 38.6957L55.0502 38.7506C53.9289 36.3891 51.9052 35.7849 50.319 35.7849C46.5176 35.7849 43.8376 38.8055 43.8376 42.7872C43.8376 46.7688 46.5176 49.7894 50.319 49.7894ZM38.1219 49.4324H42.2241V30.2106H38.1219V49.4324ZM35.1136 30.2106H30.9294C30.9294 33.6431 28.8236 36.7186 25.6239 38.9153L24.3659 39.7941V30.2106H20.0176V49.4324H24.3659V39.9039L31.5584 49.4324H36.8639L29.9449 40.3158C33.0898 38.0367 35.141 34.4943 35.1136 30.2106Z" fill="#0B051D"/>
  </g>
</svg>
